<svg xmlns="http://www.w3.org/2000/svg" width="430" height="430" fill="none" viewBox="0 0 430 430"><mask id="Zo8XKGorvVa" width="400" height="400" x="15" y="15" maskUnits="userSpaceOnUse" style="mask-type:alpha"><path fill="#D9D9D9" fill-rule="evenodd" d="M415 15H15v400h400zM67.734 42.28a6 6 0 0 0-8.485 8.486l320 320a6 6 0 0 0 8.485-8.485z" clip-rule="evenodd"/></mask><g stroke="#0050a0" stroke-linecap="round" stroke-linejoin="round" stroke-width="12" mask="url(#Zo8XKGorvVa)"><path stroke-miterlimit="13.8" d="M295 214.999c0 44.221-35.779 80-80 80s-80-35.779-80-80 35.779-80 80-80 80 35.779 80 80"/><path stroke-miterlimit="10" d="M25 215C58.524 143.702 130.998 94.342 215 94.342S371.476 143.7 405 214.999c-33.524 71.298-105.998 120.658-190 120.658S58.524 286.297 25 215"/></g><path stroke="#ff6720" stroke-linecap="round" stroke-width="12" d="m55 55.003 320 320"/></svg>